HIERARCHY
ROOT Hips
{
	OFFSET 0.000000 89.005402 0.000000
	CHANNELS 6 Xposition Yposition Zposition Xrotation Yrotation Zrotation
	JOINT Spine
	{
		OFFSET 0.116900 10.681000 0.373400
		CHANNELS 3 Xrotation Yrotation Zrotation
		JOINT Spine1
		{
			OFFSET 0.000000 13.840401 0.053500
			CHANNELS 3 Xrotation Yrotation Zrotation
			JOINT Spine2
			{
				OFFSET 0.000000 14.712700 -0.366200
				CHANNELS 3 Xrotation Yrotation Zrotation
				JOINT Neck
				{
					OFFSET 0.000000 35.415497 -3.314200
					CHANNELS 3 Xrotation Yrotation Zrotation
					JOINT Head
					{
						OFFSET 0.000000 16.899200 1.218300
						CHANNELS 3 Xrotation Yrotation Zrotation
						JOINT HeadTop_End
						{
							OFFSET 0.000000 22.206207 2.192500
							CHANNELS 3 Xrotation Yrotation Zrotation
							End Site
							{
								OFFSET 0.000000 22.314178 0.000000
							}
						}
					}
				}
				JOINT LeftShoulder
				{
					OFFSET 12.896400 26.716293 -4.548400
					CHANNELS 3 Xrotation Yrotation Zrotation
					JOINT LeftArm
					{
						OFFSET 19.027000 -4.857010 -1.718400
						CHANNELS 3 Xrotation Yrotation Zrotation
						JOINT LeftForeArm
						{
							OFFSET 24.179897 0.000000 0.000000
							CHANNELS 3 Xrotation Yrotation Zrotation
							JOINT LeftHand
							{
								OFFSET 27.156403 0.000000 0.000000
								CHANNELS 3 Xrotation Yrotation Zrotation
								JOINT LeftHandIndex1
								{
									OFFSET 16.441200 0.000000 0.000000
									CHANNELS 3 Xrotation Yrotation Zrotation
									JOINT LeftHandIndex2
									{
										OFFSET 4.821899 0.000000 0.000000
										CHANNELS 3 Xrotation Yrotation Zrotation
										JOINT LeftHandIndex3
										{
											OFFSET 6.386497 0.000000 0.000000
											CHANNELS 3 Xrotation Yrotation Zrotation
											JOINT LeftHandIndex4
											{
												OFFSET 5.188988 0.000000 0.000000
												CHANNELS 3 Xrotation Yrotation Zrotation
												End Site
												{
													OFFSET -0.178703 5.185913 0.000177
												}
											}
										}
									}
								}
								JOINT LeftHandThumb1
								{
									OFFSET 6.534897 -5.032593 5.900300
									CHANNELS 3 Xrotation Yrotation Zrotation
									JOINT LeftHandThumb2
									{
										OFFSET 3.818176 -2.204422 2.204423
										CHANNELS 3 Xrotation Yrotation Zrotation
										JOINT LeftHandThumb3
										{
											OFFSET 3.252098 -1.877594 1.877601
											CHANNELS 3 Xrotation Yrotation Zrotation
											JOINT LeftHandThumb4
											{
												OFFSET 5.251778 -3.032120 3.032117
												CHANNELS 3 Xrotation Yrotation Zrotation
												End Site
												{
													OFFSET 0.000023 6.780014 0.000000
												}
											}
										}
									}
								}
							}
						}
					}
				}
				JOINT RightShoulder
				{
					OFFSET -12.896300 26.716293 -4.548400
					CHANNELS 3 Xrotation Yrotation Zrotation
					JOINT RightArm
					{
						OFFSET -19.027000 -4.857010 -1.718400
						CHANNELS 3 Xrotation Yrotation Zrotation
						JOINT RightForeArm
						{
							OFFSET -24.179897 0.000000 0.000000
							CHANNELS 3 Xrotation Yrotation Zrotation
							JOINT RightHand
							{
								OFFSET -27.156403 0.000000 0.000000
								CHANNELS 3 Xrotation Yrotation Zrotation
								JOINT RightHandThumb1
								{
									OFFSET -6.591202 -4.852203 5.988100
									CHANNELS 3 Xrotation Yrotation Zrotation
									JOINT RightHandThumb2
									{
										OFFSET -3.818176 -2.204422 2.204423
										CHANNELS 3 Xrotation Yrotation Zrotation
										JOINT RightHandThumb3
										{
											OFFSET -3.252098 -1.877594 1.877601
											CHANNELS 3 Xrotation Yrotation Zrotation
											JOINT RightHandThumb4
											{
												OFFSET -5.251778 -3.032120 3.032117
												CHANNELS 3 Xrotation Yrotation Zrotation
												End Site
												{
													OFFSET -0.000023 6.780014 0.000000
												}
											}
										}
									}
								}
								JOINT RightHandIndex1
								{
									OFFSET -16.029404 0.000000 0.000000
									CHANNELS 3 Xrotation Yrotation Zrotation
									JOINT RightHandIndex2
									{
										OFFSET -5.213303 0.000000 0.000000
										CHANNELS 3 Xrotation Yrotation Zrotation
										JOINT RightHandIndex3
										{
											OFFSET -6.386528 0.000000 0.000000
											CHANNELS 3 Xrotation Yrotation Zrotation
											JOINT RightHandIndex4
											{
												OFFSET -5.189026 0.000000 0.000000
												CHANNELS 3 Xrotation Yrotation Zrotation
												End Site
												{
													OFFSET 0.236702 5.183624 0.001972
												}
											}
										}
									}
								}
							}
						}
					}
				}
			}
		}
	}
	JOINT LeftUpLeg
	{
		OFFSET 14.073000 -7.904099 -1.463000
		CHANNELS 3 Xrotation Yrotation Zrotation
		JOINT LeftLeg
		{
			OFFSET -0.109806 -34.073280 4.093200
			CHANNELS 3 Xrotation Yrotation Zrotation
			JOINT LeftFoot
			{
				OFFSET 0.109806 -29.899420 -6.319000
				CHANNELS 3 Xrotation Yrotation Zrotation
				JOINT LeftToeBase
				{
					OFFSET 1.551100 -14.988700 20.535801
					CHANNELS 3 Xrotation Yrotation Zrotation
					JOINT LeftToe_End
					{
						OFFSET 0.221200 0.570800 13.248301
						CHANNELS 3 Xrotation Yrotation Zrotation
						End Site
						{
							OFFSET 0.000000 13.262435 0.000000
						}
					}
				}
			}
		}
	}
	JOINT RightUpLeg
	{
		OFFSET -13.839300 -7.904099 -1.463000
		CHANNELS 3 Xrotation Yrotation Zrotation
		JOINT RightLeg
		{
			OFFSET 0.109694 -34.073219 4.093300
			CHANNELS 3 Xrotation Yrotation Zrotation
			JOINT RightFoot
			{
				OFFSET -0.109694 -29.899384 -6.319200
				CHANNELS 3 Xrotation Yrotation Zrotation
				JOINT RightToeBase
				{
					OFFSET -1.551100 -14.988700 20.535801
					CHANNELS 3 Xrotation Yrotation Zrotation
					JOINT RightToe_End
					{
						OFFSET -0.221200 0.570900 13.248299
						CHANNELS 3 Xrotation Yrotation Zrotation
						End Site
						{
							OFFSET 0.000000 13.262440 0.000000
						}
					}
				}
			}
		}
	}
}
MOTION
Frames: 4
Frame Time: 0.033333
-0.438841 78.548409 -2.462139 -20.958044 -55.700473 -17.799656 4.773883 1.870963 0.337182 9.585783 3.635381 -0.573694 9.587465 3.630536 -0.571974 3.229469 8.292635 1.344291 24.707552 14.101274 -4.928250 -0.000002 -0.000001 0.000000 -29.040479 4.348851 -6.416724 -32.822689 -16.904903 -50.028503 -0.000009 -68.831600 -0.000008 -123.623432 -4.839868 37.741720 -1.882827 2.129425 -39.817008 2.947082 5.081731 -60.200529 0.514383 2.402400 -24.167385 -0.000001 -0.000001 -0.000000 1.567992 0.456391 2.719339 19.473189 -1.474898 7.636925 -4.536187 -9.613086 1.492971 0.000001 -0.000000 0.000000 0.502987 9.233613 11.361612 -44.533417 61.742608 60.271959 0.000148 100.422181 -0.000160 -60.299075 -25.149318 -29.132338 8.377151 -4.904116 11.021994 21.620194 -18.183914 -18.379221 -0.702862 -49.821220 -32.535125 0.000001 -0.000001 -0.000001 -1.101408 1.407141 15.159537 1.422353 -3.352199 45.974082 0.615880 -2.316429 29.773109 -0.000000 -0.000000 0.000000 -36.703244 -1.867592 2.297168 76.598092 -4.425827 2.671373 -3.182210 1.184291 -14.616256 -10.476796 -3.023243 10.872588 -0.000000 0.000001 0.000001 -8.941677 -11.791931 2.987375 54.577555 -1.326414 -2.752474 -33.765429 -12.274261 -13.794501 -7.695033 0.000009 0.000003 -0.000000 -0.000001 0.000000 
6.696517 77.126785 -1.960338 -16.078620 -53.371129 -9.859725 4.891165 0.623287 0.321030 9.106065 3.240663 -0.616225 9.096157 3.253169 -0.601289 2.695163 8.432127 2.177744 24.287639 15.449150 -3.847589 -0.000002 -0.000000 0.000001 -29.240337 0.678554 -5.258002 -33.349628 -16.835783 -49.855709 0.000069 -67.324922 0.000060 -125.954603 -6.001303 35.004941 -1.273139 2.973432 -40.728531 2.944168 5.080097 -60.167615 0.514379 2.402399 -24.167386 -0.000001 0.000002 -0.000002 1.681866 1.571610 1.799627 19.473194 -1.474900 7.636923 -4.536185 -9.613078 1.492972 0.000000 -0.000001 0.000001 0.406462 8.655431 11.101431 -43.634995 61.651917 55.920350 0.000077 100.708626 -0.000079 -61.214450 -24.109815 -29.963405 8.377152 -4.904116 11.021997 21.620195 -18.183914 -18.379219 -0.702865 -49.821220 -32.535121 0.000001 -0.000001 0.000001 -1.101408 1.407142 15.159535 1.422360 -3.352181 45.974082 0.615880 -2.316428 29.773112 -0.000001 -0.000000 -0.000000 -50.124337 -4.901521 -1.764505 106.177524 -6.583734 1.956553 -1.737298 1.378866 -6.887115 1.165262 -0.000004 0.000007 -0.000002 0.000000 0.000001 -21.064052 -10.874681 -8.938936 60.405209 4.571654 -1.081109 -31.508028 -13.927242 -9.275031 -5.231051 -0.000051 -0.000009 0.000000 0.000000 -0.000000 
13.398575 78.124634 -0.744024 -11.144968 -48.229144 -1.213498 4.276387 -1.736138 -2.130140 8.844026 2.479723 -0.597977 8.815638 2.527712 -0.560936 1.571253 8.807999 3.411073 23.453046 17.615486 -1.710485 -0.000002 -0.000000 0.000001 -29.408138 -1.651300 -5.560731 -32.686980 -20.030706 -47.383707 0.000058 -66.312756 0.000062 -127.745602 -7.477777 35.093850 -0.867006 3.368085 -39.896221 2.943137 5.079458 -60.155819 0.514381 2.402401 -24.167386 0.000003 0.000002 -0.000003 1.788086 2.230460 2.629643 19.473192 -1.474899 7.636925 -4.536189 -9.613081 1.492971 0.000001 0.000000 -0.000001 0.282667 7.753211 10.939564 -42.887717 60.327953 54.006268 -0.000128 101.612957 0.000156 -63.310021 -22.664670 -30.846278 8.377153 -4.904116 11.021996 21.620190 -18.183912 -18.379219 -0.702863 -49.821223 -32.535118 -0.000001 -0.000000 0.000002 -1.101407 1.407141 15.159538 1.422363 -3.352198 45.974096 0.615880 -2.316428 29.773112 -0.000000 -0.000001 -0.000000 -61.404746 -13.191369 -9.129769 127.342361 -7.243296 -0.588175 0.021209 -0.406027 -5.487881 0.278547 0.000003 -0.000023 0.000001 -0.000000 0.000003 -28.754304 -8.299672 -20.190423 58.869264 5.142446 -1.214446 -23.884786 -14.244960 -3.390422 -4.132910 -0.000009 -0.000002 -0.000000 -0.000001 -0.000001 
20.507069 81.887650 0.434820 -8.431747 -45.263367 2.952636 2.478517 -3.820558 -6.347578 8.831544 1.783602 -0.703514 8.799346 1.875150 -0.654784 0.121439 9.214017 4.707842 22.860273 19.651586 0.336134 0.000000 -0.000000 0.000003 -29.667418 -2.062022 -4.902846 -30.436805 -24.322114 -45.136827 -0.000022 -65.192598 -0.000018 -129.352896 -8.668220 36.044162 -1.155782 2.696875 -37.046478 2.943520 5.079707 -60.160217 0.514380 2.402400 -24.167386 0.000003 0.000003 -0.000000 1.782632 1.548040 5.490595 19.473190 -1.474901 7.636928 -4.536187 -9.613080 1.492967 -0.000004 0.000000 0.000000 0.201091 7.215413 10.771648 -41.774745 58.676939 54.131773 0.000017 102.431220 0.000001 -65.492942 -20.770236 -31.620029 8.377153 -4.904114 11.021995 21.620194 -18.183912 -18.379221 -0.702864 -49.821220 -32.535125 -0.000001 -0.000001 -0.000003 -1.101408 1.407143 15.159538 1.422354 -3.352192 45.974085 0.615881 -2.316431 29.773112 0.000000 0.000001 -0.000000 -61.869998 -22.060107 -8.954855 133.575387 -7.692524 -2.898839 1.792207 0.034758 -4.482830 -0.774921 -0.000001 -0.000002 0.000001 -0.000001 -0.000001 -31.236108 -8.570084 -25.956051 48.596226 3.216001 -4.199153 -8.621386 -12.368212 3.519597 -2.866177 -0.001189 0.316197 0.000000 -0.000001 0.000000 
